<svg width="60" height="60" viewBox="0 0 60 60" fill="none" xmlns="http://www.w3.org/2000/svg">
<path d="M45 41.25C44.5619 41.2509 44.1373 41.0983 43.8 40.8187L35.325 33.75H31.875C27.8968 33.75 24.0814 32.1696 21.2684 29.3566C18.4554 26.5436 16.875 22.7282 16.875 18.75C16.875 14.7718 18.4554 10.9564 21.2684 8.1434C24.0814 5.33035 27.8968 3.75 31.875 3.75H43.125C46.7684 3.7604 50.2834 5.09651 53.0138 7.50885C55.7442 9.92119 57.5033 13.2448 57.9625 16.8592C58.4218 20.4735 57.5498 24.1315 55.5095 27.15C53.4692 30.1685 50.4 32.3412 46.875 33.2625V39.375C46.8759 39.7336 46.7739 40.085 46.5812 40.3874C46.3884 40.6898 46.113 40.9306 45.7875 41.0812C45.5403 41.1939 45.2716 41.2515 45 41.25ZM31.875 7.5C28.8913 7.5 26.0298 8.68526 23.92 10.795C21.8103 12.9048 20.625 15.7663 20.625 18.75C20.625 21.7337 21.8103 24.5952 23.92 26.705C26.0298 28.8147 28.8913 30 31.875 30H36C36.4381 29.9991 36.8627 30.1517 37.2 30.4312L43.125 35.3625V31.725C43.1205 31.27 43.2816 30.8289 43.5783 30.484C43.875 30.139 44.287 29.9137 44.7375 29.85C47.5084 29.3959 50.0093 27.9221 51.7489 25.718C53.4885 23.514 54.341 20.7391 54.1389 17.9385C53.9369 15.138 52.6949 12.5142 50.6569 10.5827C48.6189 8.65123 45.9324 7.55164 43.125 7.5H31.875Z" fill="url(#paint0_linear_9_13)"/>
<path d="M39.375 16.875H35.625V20.625H39.375V16.875Z" fill="url(#paint1_linear_9_13)"/>
<path d="M30 16.875H26.25V20.625H30V16.875Z" fill="url(#paint2_linear_9_13)"/>
<path d="M48.75 16.875H45V20.625H48.75V16.875Z" fill="url(#paint3_linear_9_13)"/>
<path d="M15 56.25C14.7284 56.2514 14.4597 56.1939 14.2125 56.0812C13.887 55.9306 13.6116 55.6898 13.4189 55.3874C13.2261 55.085 13.1241 54.7336 13.125 54.375V48.2625C10.1416 47.4677 7.47621 45.7716 5.49249 43.4058C3.50877 41.04 2.30341 38.1197 2.0409 35.0434C1.77839 31.9672 2.47154 28.8849 4.02573 26.2172C5.57992 23.5494 7.91945 21.4263 10.725 20.1375C10.9515 20.0182 11.1999 19.9465 11.4551 19.9268C11.7104 19.9071 11.9669 19.9399 12.2089 20.0232C12.451 20.1064 12.6734 20.2384 12.8626 20.4108C13.0517 20.5833 13.2035 20.7927 13.3086 21.0261C13.4138 21.2594 13.47 21.5118 13.4739 21.7678C13.4778 22.0237 13.4293 22.2777 13.3312 22.5142C13.2332 22.7507 13.0879 22.9645 12.9041 23.1427C12.7202 23.3208 12.5019 23.4594 12.2625 23.55C10.0499 24.5532 8.22144 26.2458 7.05066 28.3745C5.87988 30.5032 5.42966 32.9538 5.76732 35.3596C6.10499 37.7655 7.2124 39.9974 8.92394 41.7216C10.6355 43.4458 12.8592 44.5696 15.2625 44.925C15.713 44.9887 16.125 45.214 16.4217 45.559C16.7184 45.9039 16.8795 46.345 16.875 46.8V50.4375L22.8 45.5062C23.1267 45.1995 23.5524 45.0199 24 45H28.125C29.6266 45.0028 31.1132 44.7019 32.4955 44.1155C33.8778 43.5291 35.1273 42.6692 36.1688 41.5875C36.5169 41.2295 36.9929 41.0244 37.4922 41.0173C37.7395 41.0138 37.985 41.0591 38.2147 41.1505C38.4445 41.2419 38.654 41.3776 38.8313 41.55C39.0085 41.7224 39.1501 41.9279 39.248 42.155C39.3458 42.3821 39.3979 42.6262 39.4014 42.8735C39.4049 43.1207 39.3597 43.3662 39.2683 43.596C39.1769 43.8257 39.0411 44.0352 38.8688 44.2125C37.4716 45.6479 35.8012 46.7888 33.9559 47.5682C32.1107 48.3475 30.1281 48.7493 28.125 48.75H24.675L16.2 55.8187C15.8627 56.0983 15.4381 56.2509 15 56.25Z" fill="url(#paint4_linear_9_13)"/>
<defs>
<linearGradient id="paint0_linear_9_13" x1="37.4786" y1="3.75" x2="37.4786" y2="41.25" gradientUnits="userSpaceOnUse">
<stop offset="0.260417" stop-color="#D85F39"/>
<stop offset="1" stop-color="#554D89"/>
</linearGradient>
<linearGradient id="paint1_linear_9_13" x1="37.5" y1="16.875" x2="37.5" y2="20.625" gradientUnits="userSpaceOnUse">
<stop offset="0.260417" stop-color="#D85F39"/>
<stop offset="1" stop-color="#554D89"/>
</linearGradient>
<linearGradient id="paint2_linear_9_13" x1="28.125" y1="16.875" x2="28.125" y2="20.625" gradientUnits="userSpaceOnUse">
<stop offset="0.260417" stop-color="#D85F39"/>
<stop offset="1" stop-color="#554D89"/>
</linearGradient>
<linearGradient id="paint3_linear_9_13" x1="46.875" y1="16.875" x2="46.875" y2="20.625" gradientUnits="userSpaceOnUse">
<stop offset="0.260417" stop-color="#D85F39"/>
<stop offset="1" stop-color="#554D89"/>
</linearGradient>
<linearGradient id="paint4_linear_9_13" x1="20.6941" y1="19.9213" x2="20.6941" y2="56.25" gradientUnits="userSpaceOnUse">
<stop offset="0.260417" stop-color="#D85F39"/>
<stop offset="1" stop-color="#554D89"/>
</linearGradient>
</defs>
</svg>
