<svg width="40" height="41" viewBox="0 0 40 41" fill="none" xmlns="http://www.w3.org/2000/svg">
<path d="M39.5 20.2095C39.5 30.9387 30.7712 39.6395 20 39.6395C9.22879 39.6395 0.5 30.9387 0.5 20.2095C0.5 9.48019 9.22879 0.779419 20 0.779419C30.7712 0.779419 39.5 9.48019 39.5 20.2095Z" fill="#F0F0F0" stroke="#C75531"/>
<path d="M26.5808 12.2374H14.4192C13.0462 12.2374 12 13.2799 12 14.6482V26.7672C12 28.1355 13.0462 29.178 14.4192 29.178H26.5808C27.9538 29.178 29 28.1355 29 26.7672V14.6482C29 13.2799 27.9538 12.2374 26.5808 12.2374ZM20.5 25.7899C23.3115 25.7899 25.6 23.5746 25.6 20.9032C25.6 20.4471 25.5346 19.9258 25.4038 19.5349H26.8423V26.4414C26.8423 26.7672 26.5808 27.093 26.1885 27.093H14.8115C14.4846 27.093 14.1577 26.8323 14.1577 26.4414V19.4697H15.6615C15.5308 19.9258 15.4654 20.3819 15.4654 20.838C15.4 23.5746 17.6885 25.7899 20.5 25.7899ZM20.5 23.8352C18.6692 23.8352 17.2308 22.4017 17.2308 20.6425C17.2308 18.8833 18.6692 17.4499 20.5 17.4499C22.3308 17.4499 23.7692 18.8833 23.7692 20.6425C23.7692 22.4669 22.3308 23.8352 20.5 23.8352ZM26.7769 16.8635C26.7769 17.2544 26.45 17.5802 26.0577 17.5802H24.2269C23.8346 17.5802 23.5077 17.2544 23.5077 16.8635V15.1043C23.5077 14.7134 23.8346 14.3876 24.2269 14.3876H26.0577C26.45 14.3876 26.7769 14.7134 26.7769 15.1043V16.8635Z" fill="black"/>
</svg>
