<svg width="40" height="41" viewBox="0 0 40 41" fill="none" xmlns="http://www.w3.org/2000/svg">
<path d="M39.5 20.2059C39.5 30.9352 30.7712 39.636 20 39.636C9.22879 39.636 0.5 30.9352 0.5 20.2059C0.5 9.47665 9.22879 0.775879 20 0.775879C30.7712 0.775879 39.5 9.47665 39.5 20.2059Z" fill="#F0F0F0" stroke="#C75531"/>
<path d="M30.3182 21.2704C30.3864 20.7268 30.4545 20.2512 30.4545 19.7077C30.4545 14.2722 26.0227 9.78793 20.5 9.78793C19.9545 9.78793 19.4773 9.85587 18.9318 9.92382C18.0455 9.44821 17.0909 9.24438 16.1364 9.24438C12.7273 9.24438 10 11.9621 10 15.3593C10 16.3105 10.2045 17.2617 10.6818 18.145C10.6136 18.6885 10.5455 19.1641 10.5455 19.7077C10.5455 25.1431 14.9773 29.6274 20.5 29.6274C21.0455 29.6274 21.5227 29.5594 22.0682 29.4915C22.9545 29.8992 23.9091 30.1709 24.8636 30.1709C28.2727 30.1709 31 27.4532 31 24.056C31 23.1048 30.7273 22.1536 30.3182 21.2704ZM24.6591 23.3087C24.4545 23.7163 24.1818 24.056 23.7727 24.3278C23.3636 24.5996 22.9545 24.8034 22.4091 24.9393C21.8636 25.0752 21.25 25.1431 20.5682 25.1431C19.1364 25.1431 17.9773 24.8034 17.1591 24.1919C16.6818 23.7843 16.2727 23.3086 16.0682 22.6972C15.7955 22.1536 16.2727 21.4742 16.9545 21.4742H17.1591C17.5682 21.4742 17.9773 21.746 18.1136 22.0857C18.25 22.4254 18.4545 22.6972 18.7273 22.901C19.1364 23.2407 19.75 23.3766 20.5 23.3766C21.1818 23.3766 21.7273 23.2407 22.1364 23.0369C22.5455 22.833 22.75 22.4254 22.75 22.0177C22.75 21.8139 22.6818 21.678 22.6136 21.5421C22.5455 21.4062 22.3409 21.2704 22.2045 21.2024C22 21.0665 21.7955 20.9986 21.4545 20.9306C21.1818 20.8627 20.8409 20.7268 20.4318 20.6589L20.0227 20.523C19.5455 20.3871 19 20.2512 18.5909 20.1153C18.1136 19.9794 17.7045 19.7756 17.3636 19.5718C17.0227 19.3679 16.75 19.0962 16.5455 18.6885C16.3409 18.3488 16.2727 17.8732 16.2727 17.3296C16.2727 16.7861 16.4091 16.3105 16.6136 15.9028C16.8182 15.4952 17.1591 15.1555 17.5 14.9516C17.9091 14.6798 18.3182 14.476 18.8636 14.4081C19.3409 14.2722 19.8864 14.2042 20.5 14.2042C21.1818 14.2042 21.7273 14.2722 22.2727 14.4081C22.8182 14.544 23.2273 14.7478 23.6364 15.0875C24.0455 15.3593 24.3182 15.699 24.5227 16.1746C24.8636 16.7861 24.3864 17.6014 23.6364 17.6014H23.4318C23.0227 17.6014 22.6818 17.3976 22.4773 17.0579C22.3409 16.854 22.2045 16.6502 22 16.4464C21.6591 16.1746 21.1136 16.0387 20.5 16.0387C19.8864 16.0387 19.4091 16.1746 19.0682 16.3784C18.7273 16.5823 18.5909 16.922 18.5909 17.2617C18.5909 17.4655 18.6591 17.6014 18.7273 17.7373C18.7955 17.8732 18.9318 18.0091 19.1364 18.077C19.3409 18.145 19.5455 18.2808 19.8182 18.3488C20.0909 18.4167 20.4318 18.4847 20.8409 18.6206C21.25 18.6885 21.5909 18.8244 22 18.8923C22.3409 18.9603 22.6818 19.0962 23.0227 19.1641C23.3636 19.3 23.6364 19.4359 23.9091 19.5718C24.1818 19.7077 24.3864 19.9115 24.5909 20.1153C24.7955 20.3191 24.9318 20.5909 25 20.8627C25.1364 21.1345 25.1364 21.5421 25.1364 21.9498C25 22.4254 24.8636 22.901 24.6591 23.3087Z" fill="black"/>
</svg>
