<svg width="40" height="41" viewBox="0 0 40 41" fill="none" xmlns="http://www.w3.org/2000/svg">
<path d="M39.5 20.2095C39.5 30.9387 30.7712 39.6395 20 39.6395C9.22879 39.6395 0.5 30.9387 0.5 20.2095C0.5 9.48019 9.22879 0.779419 20 0.779419C30.7712 0.779419 39.5 9.48019 39.5 20.2095Z" fill="#F0F0F0" stroke="#C75531"/>
<path d="M9.3507 20.5822L13.9488 22.2908L15.7413 28.0377C15.8192 28.426 16.2868 28.5036 16.5985 28.2706L19.1703 26.1738C19.4041 25.9408 19.7938 25.9408 20.1055 26.1738L24.7036 29.5132C25.0154 29.7462 25.483 29.5909 25.5609 29.2026L28.99 12.8938C29.0679 12.5055 28.6782 12.1172 28.2886 12.2725L9.3507 19.5726C8.8831 19.7279 8.8831 20.4269 9.3507 20.5822ZM15.5075 21.4365L24.5477 15.9226C24.7036 15.8449 24.8595 16.0779 24.7036 16.1555L17.2999 23.0674C17.0661 23.3003 16.8323 23.611 16.8323 23.9993L16.5985 25.8632C16.5985 26.0961 16.2089 26.1738 16.1309 25.8632L15.1957 22.4461C14.9619 22.0578 15.1178 21.5918 15.5075 21.4365Z" fill="black"/>
</svg>
