<svg width="40" height="41" viewBox="0 0 40 41" fill="none" xmlns="http://www.w3.org/2000/svg">
<g filter="url(#filter0_b_7_69)">
<path d="M39.5 20.2095C39.5 30.9387 30.7712 39.6395 20 39.6395C9.22879 39.6395 0.5 30.9387 0.5 20.2095C0.5 9.48019 9.22879 0.779419 20 0.779419C30.7712 0.779419 39.5 9.48019 39.5 20.2095Z" fill="#F0F0F0" stroke="#C75531"/>
<path d="M29.8061 25.3069C29.8061 25.2241 29.7231 25.2242 29.7231 25.1414C29.391 24.4796 28.6438 23.6522 27.6475 22.7422C27.1494 22.3285 26.9003 21.9976 26.7343 21.8321C26.4852 21.5012 26.4852 21.253 26.5683 20.9221C26.6513 20.6739 26.9833 20.2602 27.5645 19.5156C27.8966 19.1019 28.0626 18.8538 28.3117 18.6056C29.5571 16.9509 30.1382 15.8754 29.9722 15.379L29.8892 15.2963C29.8061 15.2135 29.7231 15.1308 29.5571 15.1308C29.391 15.0481 29.142 15.0481 28.8929 15.1308H25.738C25.655 15.1308 25.655 15.1308 25.4889 15.1308C25.4059 15.1308 25.3229 15.1308 25.3229 15.1308H25.2399H25.1569L25.0738 15.2135C24.9908 15.2963 24.9908 15.2963 24.9908 15.379C24.6587 16.289 24.2436 17.0336 23.8285 17.861C23.5794 18.2746 23.3303 18.6883 23.0813 19.0192C22.8322 19.3502 22.6662 19.5983 22.5001 19.7638C22.3341 19.9293 22.168 20.012 22.085 20.1775C22.002 20.2602 21.8359 20.3429 21.8359 20.2602C21.7529 20.2602 21.6699 20.2602 21.6699 20.1775C21.5869 20.0947 21.5038 20.012 21.4208 19.9293C21.3378 19.8465 21.3378 19.6811 21.2548 19.5156C21.2548 19.3501 21.2548 19.1847 21.2548 19.1019C21.2548 19.0192 21.2548 18.771 21.2548 18.6056C21.2548 18.3574 21.2548 18.1919 21.2548 18.1092C21.2548 17.861 21.2548 17.53 21.2548 17.1991C21.2548 16.8682 21.2548 16.62 21.2548 16.4545C21.2548 16.289 21.2548 16.0408 21.2548 15.8754C21.2548 15.6272 21.2548 15.4617 21.2548 15.379C21.2548 15.2963 21.1718 15.1308 21.1718 15.0481C21.0887 14.9653 21.0057 14.8826 20.9227 14.7999C20.8397 14.7171 20.6736 14.7171 20.5906 14.6344C20.1755 14.5517 19.6773 14.4689 19.0962 14.4689C17.7678 14.4689 16.8546 14.5517 16.5225 14.7171C16.3564 14.7999 16.1904 14.8826 16.1074 15.0481C15.9413 15.2135 15.9413 15.2963 16.0243 15.2963C16.4394 15.379 16.7715 15.5444 16.9376 15.7926L17.0206 15.9581C17.1036 16.0409 17.1036 16.2063 17.1866 16.4545C17.2697 16.7027 17.2697 16.9509 17.2697 17.2818C17.2697 17.7782 17.2697 18.2746 17.2697 18.6056C17.2697 19.0192 17.1866 19.2674 17.1866 19.5156C17.1866 19.7638 17.1036 19.9293 17.0206 20.012C16.9376 20.1775 16.9376 20.2602 16.8546 20.2602C16.8546 20.2602 16.8546 20.3429 16.7715 20.3429C16.6885 20.3429 16.6055 20.4257 16.4394 20.4257C16.3564 20.4257 16.1904 20.3429 16.1074 20.2602C15.9413 20.1775 15.7753 20.012 15.6922 19.8465C15.5262 19.6811 15.3601 19.4329 15.1941 19.1019C15.0281 18.771 14.779 18.4401 14.6129 17.9437L14.4469 17.6128C14.3639 17.4473 14.1978 17.1164 14.0318 16.7027C13.8657 16.289 13.6997 15.9581 13.5336 15.5445C13.4506 15.379 13.3676 15.2963 13.2846 15.2135H13.2016C13.2016 15.2135 13.1185 15.1308 13.0355 15.1308C12.9525 15.1308 12.8695 15.0481 12.7864 15.0481H9.79761C9.46552 15.0481 9.29947 15.1308 9.21645 15.2135L9.13342 15.2963C9.13342 15.2963 9.13342 15.379 9.13342 15.4617C9.13342 15.5445 9.13343 15.6272 9.21645 15.7926C9.63157 16.7854 10.1297 17.7782 10.6278 18.771C11.126 19.6811 11.6241 20.5084 11.9562 21.0875C12.3713 21.6667 12.7034 22.2458 13.1185 22.7422C13.5336 23.2386 13.7827 23.5695 13.8657 23.735C14.0318 23.9004 14.1148 23.9832 14.1978 24.0659L14.4469 24.3141C14.6129 24.4796 14.862 24.7278 15.1941 24.976C15.5262 25.2242 15.9413 25.4723 16.3564 25.7205C16.7715 25.9687 17.2697 26.1342 17.7678 26.2997C18.349 26.4651 18.8471 26.5479 19.3452 26.4651H20.5906C20.8397 26.4651 21.0057 26.3824 21.1718 26.2169L21.2548 26.1342C21.2548 26.0515 21.3378 26.0515 21.3378 25.9687C21.3378 25.886 21.3378 25.8033 21.3378 25.6378C21.3378 25.3069 21.3378 25.0587 21.4208 24.8105C21.5038 24.5623 21.5039 24.3968 21.5869 24.2314C21.6699 24.0659 21.7529 23.9832 21.8359 23.9004C21.919 23.8177 22.002 23.735 22.002 23.735H22.085C22.251 23.6522 22.5001 23.735 22.6662 23.9004C22.9152 24.0659 23.1643 24.3141 23.3303 24.5623C23.4964 24.8105 23.7455 25.0587 24.0776 25.3896C24.4097 25.7205 24.6587 25.9687 24.8248 26.0515L25.0738 26.2169C25.2399 26.2997 25.4059 26.3824 25.655 26.4651C25.9041 26.5479 26.0701 26.5479 26.2361 26.5479L29.0589 26.4651C29.308 26.4651 29.5571 26.3824 29.7231 26.2997C29.8892 26.2169 29.9722 26.1342 29.9722 25.9687C29.9722 25.886 29.9722 25.7206 29.9722 25.6378C29.8061 25.4724 29.8061 25.3896 29.8061 25.3069Z" fill="black"/>
</g>
<defs>
<filter id="filter0_b_7_69" x="-4" y="-3.72058" width="48" height="47.86" filterUnits="userSpaceOnUse" color-interpolation-filters="sRGB">
<feFlood flood-opacity="0" result="BackgroundImageFix"/>
<feGaussianBlur in="BackgroundImage" stdDeviation="2"/>
<feComposite in2="SourceAlpha" operator="in" result="effect1_backgroundBlur_7_69"/>
<feBlend mode="normal" in="SourceGraphic" in2="effect1_backgroundBlur_7_69" result="shape"/>
</filter>
</defs>
</svg>
