<svg width="82" height="87" viewBox="0 0 82 87" fill="none" xmlns="http://www.w3.org/2000/svg">
<path d="M16.4377 21.2102L16.4488 21.2157L16.4601 21.2207L25.3947 25.1488C23.6735 27.8879 22.7769 30.9897 22.7769 34.239C22.7769 43.661 30.4314 51.4004 39.9382 51.4004C49.4434 51.4004 57.0996 43.7443 57.0996 34.239C57.0996 31.069 56.2042 27.8996 54.5512 25.2197L61.6534 21.8775V36.8227L59.1689 42.1121L59.1627 42.1254L59.1572 42.139C58.9531 42.6495 58.9198 43.257 59.3032 43.7681C59.6223 44.1937 60.1682 44.5398 60.7649 44.5398H65.5836C66.0865 44.5398 66.7185 44.3393 67.0019 43.7149C67.3446 43.2152 67.3068 42.6319 67.1096 42.139L67.1082 42.1354L64.9402 36.8359V20.0279C64.9402 19.6921 64.9245 19.2814 64.6823 18.8878C64.4411 18.4959 64.026 18.198 63.4121 17.9348L63.393 17.9267L63.3732 17.9201C63.3798 17.9223 63.3637 17.9153 63.3179 17.8956C63.277 17.878 63.2125 17.8502 63.1193 17.8097C62.9422 17.7326 62.689 17.6217 62.3704 17.4816C61.7332 17.2015 60.8361 16.8057 59.7661 16.333C57.6263 15.3874 54.796 14.1343 51.9732 12.8837C49.1504 11.6331 46.3353 10.3851 44.2258 9.4497L41.6782 8.31985L40.965 8.00347L40.7771 7.92014L40.729 7.89878L40.7224 7.89586C40.262 7.66952 39.7779 7.6695 39.3175 7.89578L16.4663 18.0156C15.8591 18.2637 15.4263 18.9438 15.4263 19.6195C15.4263 20.3065 15.7852 20.8839 16.4377 21.2102ZM53.5677 34.239C53.5677 41.8035 47.421 47.9502 39.8565 47.9502C32.2921 47.9502 26.1454 41.8035 26.1454 34.239C26.1454 31.4663 27.0015 28.8309 28.5183 26.536L39.2353 31.3429C39.5024 31.473 39.7643 31.4725 39.9171 31.4721C39.9244 31.4721 39.9314 31.4721 39.9382 31.4721C39.945 31.4721 39.9521 31.4721 39.9594 31.4721C40.1121 31.4725 40.374 31.473 40.641 31.343L51.2027 26.6139C52.7795 28.9016 53.5677 31.5331 53.5677 34.239ZM21.4044 19.6195L40.0199 11.346L58.6354 19.6195L40.0199 27.8931L21.4044 19.6195Z" fill="#D85F39" stroke="#D85F39"/>
<path d="M40.3466 53.3406C24.1442 53.3406 10.9343 66.5505 10.9343 82.753C10.9343 83.6825 11.7298 84.4781 12.6594 84.4781H68.0339C68.9634 84.4781 69.759 83.6825 69.759 82.753C69.759 66.5505 56.5491 53.3406 40.3466 53.3406ZM66.2796 81.0279H14.4952C15.3958 67.4921 26.6624 56.7908 40.4283 56.7908C54.1901 56.7908 65.3793 67.5671 66.2796 81.0279Z" fill="#D85F39" stroke="#D85F39"/>
</svg>
