<svg width="80" height="87" viewBox="0 0 80 87" fill="none" xmlns="http://www.w3.org/2000/svg">
<path d="M30 47.3333C26.3233 47.3333 23.3333 50.325 23.3333 54C23.3333 57.675 26.3233 60.6667 30 60.6667C33.6767 60.6667 36.6667 57.675 36.6667 54C36.6667 50.325 33.6767 47.3333 30 47.3333ZM30 57.3333C28.1617 57.3333 26.6667 55.84 26.6667 54C26.6667 52.16 28.1617 50.6667 30 50.6667C31.8383 50.6667 33.3333 52.16 33.3333 54C33.3333 55.84 31.8383 57.3333 30 57.3333ZM14.5117 59.4883L24.5117 69.4883L22.155 71.845L12.155 61.845L14.5117 59.4883ZM78.8933 14.1233C79.5683 13.4467 80 12.5517 80 10.8483C80 6.43167 77.6317 4 73.3333 4C71.5383 4 70.635 4.45167 69.9033 5.19833C69.825 4.935 69.705 4.68333 69.5167 4.48333C68.8833 3.86667 67.7667 3.86667 67.15 4.48333C66.8483 4.8 66.6667 5.23333 66.6667 5.66667C66.6667 6.11667 66.8483 6.53333 67.15 6.85C67.4233 7.10833 67.7917 7.25833 68.1633 7.3C67.78 7.705 67.28 8.16167 66.6 8.67167C66.5333 8.35333 66.4067 8.05333 66.1833 7.81667C65.55 7.2 64.415 7.21667 63.8167 7.81667C63.515 8.13333 63.3333 8.55 63.3333 9C63.3333 9.43333 63.515 9.86667 63.8167 10.1833C63.9733 10.3317 64.1583 10.45 64.3583 10.5333C63.9917 10.9167 63.6083 11.345 63.23 11.8317C63.1483 11.5817 63.03 11.34 62.8483 11.15C62.2317 10.5333 61.0983 10.5333 60.4817 11.15C60.1817 11.4667 60 11.9 60 12.3333C60 12.7833 60.1817 13.2 60.4833 13.5167C60.7983 13.8167 61.2333 14 61.6667 14C61.7433 14 61.8167 13.965 61.8917 13.955C61.5767 14.6067 61.345 15.2667 61.2817 15.9017C61.2433 16.305 61.2783 16.65 61.345 16.9667L41.1783 37.1333C38.305 35.1917 35 34 31.6667 34C22.9783 34 21.6533 39.7617 20.94 42.8567C20.8 43.4683 20.6067 44.3083 20.4883 44.4883C19.86 45.1167 17.5983 45.5317 15.6017 45.8983C9.39 47.0333 0 48.7533 0 60.6333C0 71.5517 12.4483 84 23.3667 84C35.2467 84 36.9667 74.6117 38.1033 68.3983C38.4683 66.4033 38.8833 64.14 39.475 63.545C39.6917 63.3933 40.53 63.2 41.1417 63.06C44.2383 62.3467 50 61.0217 50 52.3333C50 49 48.8083 45.6967 46.8667 42.8217L67.0267 22.665C67.2367 22.7067 67.4617 22.7367 67.71 22.7367C67.835 22.7367 67.965 22.73 68.1017 22.7167C68.735 22.655 69.395 22.4233 70.045 22.1083C70.035 22.1833 70 22.2567 70 22.3333C70 22.7667 70.1817 23.2 70.4833 23.5167C70.7983 23.8167 71.2333 24 71.6667 24C72.1 24 72.5333 23.8167 72.85 23.5167C73.15 23.2 73.3333 22.7667 73.3333 22.3333C73.3333 21.9 73.15 21.4667 72.85 21.15C72.66 20.96 72.4167 20.8483 72.16 20.7767C72.6483 20.3967 73.08 20.0117 73.4633 19.6433C73.5483 19.8433 73.6667 20.025 73.8167 20.1833C74.1317 20.4833 74.5667 20.6667 75 20.6667C75.4333 20.6667 75.8667 20.4833 76.1833 20.1833C76.4833 19.8667 76.6667 19.4333 76.6667 19C76.6667 18.5667 76.4833 18.1333 76.1833 17.8167C75.9467 17.5867 75.6417 17.4733 75.3217 17.4133C75.84 16.7283 76.2983 16.235 76.705 15.8617C76.75 16.2333 76.8933 16.5817 77.15 16.85C77.465 17.15 77.9 17.3333 78.3333 17.3333C78.7667 17.3333 79.2 17.15 79.5167 16.85C79.8167 16.5333 80 16.1 80 15.6667C80 15.2333 79.8167 14.8 79.5167 14.4833C79.34 14.3117 79.1233 14.1983 78.8933 14.1233ZM40.395 59.81C39.075 60.1133 37.9333 60.3767 37.155 61.155C35.7917 62.5183 35.365 64.85 34.825 67.7983C33.72 73.83 32.4683 80.6667 23.3667 80.6667C14.1933 80.6667 3.33333 69.8067 3.33333 60.6333C3.33333 51.53 10.17 50.2783 16.2033 49.175C19.1533 48.635 21.4817 48.2083 22.845 46.845C23.6233 46.0667 23.8867 44.9267 24.19 43.6067C24.8983 40.5217 25.6317 37.3333 31.6667 37.3333C39.0967 37.3333 46.6667 44.9033 46.6667 52.3333C46.6667 58.3683 43.4783 59.1017 40.395 59.81ZM44.77 40.2067C44.455 39.87 44.13 39.5467 43.7933 39.23L63.3333 19.69L64.31 20.6667L44.77 40.2067ZM67.845 19.4883C67.8433 19.4867 67.845 19.4867 67.845 19.4883V19.4883ZM76.0017 12.1867C75.0867 12.82 73.7033 13.775 71.9483 16.4083C71.3733 17.2717 68.7283 19.445 67.7517 19.395L64.6033 16.2467C64.565 15.305 66.7267 12.6283 67.59 12.0517C70.1583 10.34 71.165 8.98333 71.83 8.08667C72.3917 7.33333 72.3917 7.33333 73.3333 7.33333C75.7633 7.33333 76.6667 8.28667 76.6667 10.8483C76.6667 11.7283 76.6667 11.7283 76.0017 12.1867Z" fill="#554D89"/>
</svg>
