<svg width="76" height="81" viewBox="0 0 76 81" fill="none" xmlns="http://www.w3.org/2000/svg">
<path d="M73.5905 25.2905L38.3997 1.82991C37.9678 1.54197 37.4056 1.54197 36.9737 1.82991L1.78291 25.2905C1.42555 25.5287 1.21045 25.9306 1.21045 26.36C1.21045 26.7893 1.42469 27.1912 1.78291 27.4295L7.12786 30.9928V49.7717C7.12786 50.2096 7.35067 50.6175 7.71917 50.854L37.1983 69.7529C37.4099 69.8883 37.6507 69.956 37.8924 69.956C38.1452 69.956 38.3989 69.8814 38.6165 69.7323L53.9967 59.2395V66.5564L48.2669 78.0158C48.0681 78.4143 48.0895 78.8882 48.3226 79.267C48.5566 79.6449 48.9714 79.8763 49.4161 79.8763H61.1473C61.5929 79.8763 62.0068 79.6449 62.2408 79.267C62.4739 78.8882 62.4961 78.4143 62.2965 78.0158L56.5667 66.5564V57.4853L66.3165 50.8335C66.667 50.5944 66.877 50.1967 66.877 49.7717V31.9046L73.5897 27.4295C73.947 27.1912 74.1621 26.7893 74.1621 26.36C74.1621 25.9306 73.9479 25.5287 73.5905 25.2905ZM51.4969 77.3054L55.2821 69.7349L59.0674 77.3054H51.4969ZM37.8701 67.1297L9.69878 49.0689V32.7067L36.9737 50.8909C37.1897 51.0348 37.4382 51.1068 37.6867 51.1068C37.9353 51.1068 38.1838 51.0348 38.3997 50.8909L53.9967 40.4923V56.127L37.8701 67.1297ZM64.3069 49.0929L56.5676 54.3736V38.7784L64.3069 33.6185V49.0929ZM65.1459 29.9695C64.9565 30.0398 64.7894 30.1521 64.654 30.2978L55.2821 36.546L38.3997 25.2905C37.8076 24.8962 37.0106 25.0565 36.6172 25.647C36.2239 26.2374 36.3833 27.0361 36.9737 27.4295L52.9649 38.0902L37.6867 48.2762L4.81317 26.36L37.6867 4.44454L70.5603 26.36L65.1459 29.9695Z" fill="#D85F39" stroke="#D85F39" stroke-width="2"/>
</svg>
