<svg width="84" height="87" viewBox="0 0 84 87" fill="none" xmlns="http://www.w3.org/2000/svg">
<path d="M73.1235 11.8825H60.9063V6.5259C60.9063 5.58043 60.0968 4.77092 59.1514 4.77092H23.4263C22.4808 4.77092 21.6713 5.58043 21.6713 6.5259V11.8825H9.11948C8.6222 11.8825 8.16678 12.1261 7.84561 12.4472C7.46777 12.8251 7.3645 13.3094 7.3645 13.7211C7.3645 14.0154 7.62113 19.4207 9.56233 25.6663L9.5623 25.6663L9.56404 25.6717C12.2379 33.944 16.7564 39.9021 22.8467 42.6971C24.8872 49.2857 29.4145 54.5291 35.141 56.7371C35.093 63.3779 30.0457 68.6076 23.5936 68.6076C22.6481 68.6076 21.8386 69.4171 21.8386 70.3625V77.4741C21.8386 78.4196 22.6481 79.2291 23.5936 79.2291H59.1514C60.0968 79.2291 60.9063 78.4196 60.9063 77.4741V70.3625C60.9063 69.4171 60.0968 68.6076 59.1514 68.6076C52.6284 68.6076 47.2858 63.3258 47.1866 56.8255C53.1614 54.6157 57.7773 49.2816 59.8188 42.5209C65.6542 39.6463 70.0877 33.779 72.6791 25.6712C74.6151 19.7014 74.8591 14.4254 74.8772 13.7812C74.9869 13.2279 74.6961 12.746 74.3973 12.4472C74.0762 12.1261 73.6207 11.8825 73.1235 11.8825ZM13.5313 26.307C11.921 21.943 11.2669 17.7135 11.0123 15.3924H21.6713V34.9721C21.6713 36.0257 21.7165 37.0419 21.8418 38.0507C17.7511 35.2245 15.1618 30.7259 13.5313 26.307ZM43.7103 57.7251C44.3022 65.1722 50.0931 71.1895 57.3964 71.989V75.6355H25.3486V71.9885C32.5727 71.1889 38.1215 65.2352 38.5454 57.644C39.3991 57.7779 40.32 57.8944 41.247 57.8944C42.0807 57.8944 42.9167 57.8383 43.7103 57.7251ZM45.5286 53.739L44.4638 54.0666C43.4045 54.3102 42.3624 54.4681 41.3306 54.4681C40.123 54.4681 38.9182 54.3075 37.7974 53.9884C37.7453 53.9709 37.6844 53.9492 37.6143 53.9243L37.6039 53.9206C37.5272 53.8933 37.4417 53.8629 37.3578 53.8349C37.2747 53.8072 37.1859 53.7794 37.1022 53.7581C37.0516 53.7452 36.9852 53.7299 36.9139 53.7215C30.2395 51.4364 25.1812 43.9771 25.1812 35.0558V8.36454H57.3964V12.8845V14.4741V35.0558C57.3964 43.9998 52.3123 51.4747 45.5286 53.739ZM68.8677 26.1314C67.287 30.4784 64.7739 34.938 60.7923 37.8613C60.9029 36.9278 60.99 35.9517 60.99 34.9721V15.3924H71.3145C71.0628 17.7003 70.43 21.8353 68.8677 26.1314Z" fill="#554D89" stroke="#554D89"/>
<path d="M53.3784 22.8406L46.5179 21.8367L43.4222 15.5618C43.0876 14.8924 42.3346 14.3904 41.5816 14.3904C40.8286 14.3904 40.0756 14.8088 39.741 15.5618L36.6453 21.8367L29.7848 22.8406C29.0318 22.9243 28.3625 23.51 28.1115 24.263C27.8605 25.0159 28.0278 25.8526 28.6135 26.3546L33.6334 31.2072L32.4621 38.0677C32.2948 38.8207 32.6294 39.5737 33.2987 40.0757C33.6334 40.3267 34.0517 40.494 34.5537 40.494C34.8884 40.494 35.223 40.4104 35.474 40.243L41.8326 37.0637L47.8565 40.243C48.5258 40.5777 49.3625 40.5777 50.0318 40.0757C50.7011 39.5737 50.9521 38.8207 50.8685 38.0677L49.6971 31.2072L54.7171 26.3546C55.3027 25.7689 55.47 25.0159 55.2191 24.263C54.8007 23.51 54.2151 22.9243 53.3784 22.8406ZM47.3545 29.8685C47.0198 30.1195 46.9362 30.5379 47.0199 30.9562L48.1912 37.5657L42.4183 34.5538C42.0836 34.3865 41.6653 34.3865 41.2469 34.5538L35.0557 37.6494L36.227 30.9562C36.3107 30.5379 36.1434 30.1195 35.8924 29.8685L31.1234 25.1833L37.733 24.1793C38.1513 24.0956 38.486 23.8446 38.6533 23.51L41.5816 17.4861L44.5099 23.51C44.6772 23.8446 45.0119 24.1793 45.4302 24.1793L52.0398 25.1833L47.3545 29.8685Z" fill="#554D89" stroke="#554D89" stroke-width="2"/>
</svg>
