<svg xmlns="http://www.w3.org/2000/svg" viewBox="0 0 131.49 73.37"><defs><style>.cls-1{font-size:20px;font-family:AktivGroteskCorp-Bold, Aktiv Grotesk Corp;font-weight:700;}.cls-2{letter-spacing:-0.09em;}.cls-3{font-family:AktivGroteskCorp-Light, Aktiv Grotesk Corp;font-weight:300;}.cls-4{letter-spacing:-0.01em;}.cls-5{letter-spacing:-0.02em;}</style></defs><g id="Слой_2" data-name="Слой 2"><g id="Слой_1-2" data-name="Слой 1"><g id="Слой_2-2" data-name="Слой 2"><g id="Слой_2-2-2" data-name="Слой 2-2"><path d="M29.21,53.5a1,1,0,0,0-.7-.8c-2-.6-8.6-3.1-8.1-10.4.7-8.6,6.7-9.1,8.6-9.2,1.4-.1,6.5,1.5,8.5-1.1s1.7-8.6,7.2-8.9,4.8,3.6,14,1.3c8.6-2.2,50.2-14.5,55.3-16,.3-.1.5-.2.8-.3a3.18,3.18,0,0,1,3.5.1,39.67,39.67,0,0,1,2.9,2.9,1.61,1.61,0,0,0,1.3.6H125a.79.79,0,0,0,.8-.8.6.6,0,0,0-.1-.4l-4.2-7.1a1.62,1.62,0,0,0-1.9-.8c-3,.6-10.2,2.1-11.2,3.1a12.67,12.67,0,0,0-1.1,1.3,2.26,2.26,0,0,1-1.5,1L60.11,20.9s-5.8,2-7-.3,2.9-9-.7-11.2a6.81,6.81,0,0,0-7.5-.3c-1.4.7-9.9,7.4-13.2,8.7s-14.6-2.4-18.4-2.8-9.5.3-11.1,4.1-3.3,8.3-1.3,16.7,11.7,19.6,20.4,20.3C28.51,56.6,29.51,55,29.21,53.5Z"/><circle cx="109.61" cy="3.2" r="1.3"/><circle cx="113.61" cy="2" r="1.3"/><circle cx="117.71" cy="1.3" r="1.3"/></g><text class="cls-1" transform="translate(35.05 50.01)">GUI<tspan class="cls-2" x="34.28" y="0">T</tspan><tspan x="44.78" y="0">AR </tspan><tspan class="cls-3"><tspan x="0" y="19" xml:space="preserve">   </tspan><tspan class="cls-4" x="13.44" y="19">S</tspan><tspan x="26.12" y="19">CHOO</tspan><tspan class="cls-5" x="84.32" y="19">L</tspan></tspan></text></g></g></g></svg>