<svg width="510" height="510" viewBox="0 0 510 510" fill="none" xmlns="http://www.w3.org/2000/svg">
<path fill-rule="evenodd" clip-rule="evenodd" d="M195.481 502.7C199.534 503.676 203.605 504.551 207.688 505.324L487.678 151.444C485.986 147.648 484.199 143.888 482.316 140.167L195.481 502.7ZM480.809 137.237C478.938 133.657 476.978 130.115 474.929 126.614L180.592 498.629C184.47 499.817 188.368 500.91 192.282 501.907L480.809 137.237ZM177.527 497.668L473.289 123.852C471.253 120.473 469.133 117.133 466.93 113.836L166.317 493.783C170.031 495.169 173.769 496.464 177.527 497.668ZM163.376 492.664L465.165 111.232C462.974 108.04 460.703 104.891 458.354 101.786L152.617 488.209C156.179 489.781 159.766 491.266 163.376 492.664ZM449.232 90.4271C451.72 93.3492 454.133 96.3178 456.472 99.3302L149.794 486.942C146.324 485.359 142.88 483.693 139.464 481.944L449.232 90.4271ZM447.237 88.1132L136.753 480.535C133.681 478.914 130.632 477.225 127.609 475.468L440.203 80.3795C442.608 82.9175 444.953 85.496 447.237 88.1132ZM438.106 78.1942C435.5 75.5097 432.825 72.8722 430.08 70.2843L115.456 467.939C118.606 470.015 121.788 472.012 125 473.93L438.106 78.1942ZM112.953 466.268L427.878 68.2322C425.14 65.7102 422.335 63.2369 419.463 60.8146L103.798 459.785C106.816 462.022 109.869 464.183 112.953 466.268ZM413.167 55.6708C414.511 56.7341 415.842 57.8083 417.158 58.893L101.398 457.984C100.04 456.952 98.6884 455.904 97.3445 454.841C95.7525 453.581 94.1796 452.307 92.6258 451.017L408.361 51.9583C409.973 53.1737 411.575 54.4113 413.167 55.6708ZM405.954 50.1656L90.3275 449.087C87.4643 446.654 84.6678 444.17 81.9382 441.637L396.774 43.7148C399.866 45.7886 402.927 47.9388 405.954 50.1656ZM394.263 42.0528C391.105 39.9881 387.914 38.0021 384.693 36.0946L71.7436 431.633C74.3408 434.328 77.0074 436.977 79.7433 439.576L394.263 42.0528ZM69.6543 429.439L382.077 34.5661C378.783 32.6675 375.458 30.8501 372.107 29.1136L62.0547 420.99C64.5156 423.852 67.0489 426.669 69.6543 429.439ZM358.998 22.7932C362.485 24.3525 365.947 25.9955 369.382 27.7226L60.0742 418.658C57.6034 415.713 55.2081 412.721 52.8885 409.686L358.998 22.7932ZM356.16 21.5451L51.021 407.211C48.8764 404.333 46.799 401.416 44.7889 398.464L346.213 17.4921C349.549 18.7692 352.865 20.1201 356.16 21.5451ZM343.265 16.3841C339.539 15.0108 335.791 13.7289 332.024 12.538L36.7038 385.794C38.7293 389.187 40.839 392.54 43.0324 395.849L343.265 16.3841ZM35.0722 383.021L328.95 11.5879C325.061 10.4129 321.152 9.3342 317.226 8.35146L29.2259 372.357C31.0852 375.951 33.0341 379.507 35.0722 383.021ZM301.775 4.9916C305.87 5.74916 309.953 6.60867 314.019 7.57057L27.7282 369.415C25.8568 365.679 24.0812 361.903 22.4021 358.092L301.775 4.9916ZM298.422 4.39454L21.0497 354.967C19.3602 350.988 17.7748 346.973 16.2939 342.924L285.609 2.53609C289.889 3.04606 294.162 3.66538 298.422 4.39454ZM282.095 2.14219C277.617 1.67166 273.132 1.32042 268.644 1.08789L10.9824 326.748C12.2409 331.062 13.6144 335.346 15.1023 339.595L282.095 2.14219ZM9.97228 323.19L264.949 0.923241C260.223 0.746932 255.495 0.702082 250.772 0.788013L6.5797 309.424C7.5824 314.04 8.71349 318.63 9.97228 323.19ZM231.834 1.83558C236.833 1.3728 241.846 1.05696 246.867 0.8889L5.77963 305.6C4.78839 300.676 3.94259 295.724 3.24311 290.753L231.834 1.83558ZM227.677 2.25463L2.69475 286.611C2.06344 281.523 1.58488 276.417 1.25997 271.3L212.447 4.38002C217.501 3.51915 222.581 2.81039 227.677 2.25463ZM0.81897 248.968C0.676698 254.909 0.741811 260.849 1.01296 266.777L207.988 5.17995C202.157 6.27958 196.361 7.58252 190.612 9.08742L0.81897 248.968ZM166.477 16.7029C172.821 14.349 179.246 12.2526 185.736 10.4157L0.98997 243.917C1.28486 237.179 1.84718 230.443 2.67884 223.729L166.477 16.7029ZM160.981 18.8153L3.47025 217.893C4.65885 209.832 6.23807 201.807 8.21142 193.848L138.67 28.9603C145.962 25.2092 153.408 21.8263 160.981 18.8153ZM10.1241 186.595L132.052 32.4898C121.96 38.0659 112.19 44.3646 102.824 51.3766L21.7816 153.807C17.112 164.535 13.2293 175.491 10.1241 186.595ZM27.2695 142.036L92.6312 59.4249C79.2821 70.5331 66.8753 83.1831 55.6709 97.3444C44.4664 111.506 35.0094 126.49 27.2695 142.036ZM223.805 507.843C219.537 507.315 215.278 506.679 211.031 505.934L489.04 154.557C490.742 158.519 492.341 162.518 493.836 166.549L223.805 507.843ZM240.713 509.362C236.24 509.109 231.77 508.739 227.308 508.251L495.039 169.864C496.541 174.094 497.929 178.359 499.203 182.654L240.713 509.362ZM244.395 509.542C248.723 509.724 253.053 509.795 257.379 509.756L503.42 198.784C502.463 194.564 501.398 190.367 500.226 186.196L244.395 509.542ZM261.256 509.692C266.235 509.572 271.209 509.306 276.169 508.896L506.906 217.267C506.164 212.345 505.278 207.444 504.25 202.571L261.256 509.692ZM296.224 506.439C290.935 507.3 285.622 507.994 280.291 508.522L507.489 221.364C508.202 226.674 508.748 232.005 509.127 237.349L296.224 506.439ZM317.891 501.942C312.186 503.386 306.435 504.632 300.651 505.678L509.405 241.833C509.717 247.702 509.827 253.585 509.734 259.47L317.891 501.942ZM322.724 500.668C329.145 498.908 335.503 496.896 341.784 494.632L508.116 284.404C508.875 277.771 509.371 271.119 509.606 264.467L322.724 500.668ZM347.213 492.605C354.659 489.728 361.988 486.494 369.171 482.906L503.004 313.754C504.844 305.938 506.306 298.062 507.393 290.153L347.213 492.605ZM403.871 461.937C394.801 468.466 385.37 474.34 375.651 479.551L501.23 320.831C498.394 331.489 494.847 342.018 490.579 352.347L403.871 461.937ZM454.841 413.167C442.392 428.902 428.458 442.771 413.397 454.732L485.758 363.275C477.582 380.683 467.29 397.433 454.841 413.167Z" fill="url(#paint0_linear_18_186)" fill-opacity="0.25"/>
<defs>
<linearGradient id="paint0_linear_18_186" x1="413.167" y1="55.6711" x2="97.3441" y2="454.842" gradientUnits="userSpaceOnUse">
<stop offset="0.197917" stop-color="#C75531"/>
<stop offset="0.807292" stop-color="#554D89"/>
</linearGradient>
</defs>
</svg>
