<svg width="189" height="189" viewBox="0 0 189 189" fill="none" xmlns="http://www.w3.org/2000/svg">
<path fill-rule="evenodd" clip-rule="evenodd" d="M183.893 125.213C184.168 124.408 184.433 123.601 184.686 122.791L66.2053 4.31005C65.3953 4.56344 64.5881 4.82798 63.7838 5.10368L183.893 125.213ZM60.6701 6.23266C59.9003 6.52724 59.1336 6.83224 58.3701 7.14769L181.849 130.626C182.164 129.863 182.469 129.096 182.764 128.326L60.6701 6.23266ZM180.566 133.586L55.4103 8.43056C54.6776 8.76322 53.9483 9.10571 53.2225 9.45805L179.538 135.774C179.891 135.048 180.233 134.319 180.566 133.586ZM178.112 138.59L50.4062 10.8844C49.7084 11.2527 49.0143 11.6303 48.3239 12.0172L176.979 140.672C177.366 139.982 177.744 139.288 178.112 138.59ZM43.6607 14.8118C44.3175 14.3919 44.9783 13.981 45.643 13.5789L175.417 143.353C175.015 144.018 174.604 144.679 174.184 145.336L43.6607 14.8118ZM41.1089 16.5026L172.494 147.887C172.122 148.429 171.744 148.968 171.36 149.503L39.4932 17.6364C40.0287 17.2522 40.5673 16.8743 41.1089 16.5026ZM37.0579 19.4438C36.4538 19.9074 35.8539 20.3793 35.2585 20.8595L168.137 153.738C168.617 153.142 169.089 152.543 169.553 151.938L37.0579 19.4438ZM166.209 156.052L32.9441 22.7877C32.3698 23.2817 31.8001 23.7837 31.2351 24.2938L164.703 157.761C165.213 157.196 165.715 156.627 166.209 156.052ZM27.6786 27.6734C28.1286 27.2234 28.5819 26.779 29.0386 26.34L162.656 159.958C162.217 160.414 161.773 160.868 161.323 161.318C161.236 161.405 161.149 161.492 161.061 161.578L27.4181 27.9349C27.5048 27.8476 27.5916 27.7604 27.6786 27.6734ZM25.338 30.0974L158.899 163.658C158.343 164.177 157.782 164.688 157.216 165.19L23.806 31.7803C24.3087 31.2147 24.8194 30.6537 25.338 30.0974ZM21.8432 34.0602C21.3542 34.6467 20.8735 35.2377 20.4009 35.8331L153.163 168.595C153.759 168.123 154.35 167.642 154.936 167.153L21.8432 34.0602ZM150.763 170.438L18.558 38.2329C18.0994 38.8503 17.6493 39.472 17.2077 40.0978L148.898 171.789C149.524 171.347 150.146 170.897 150.763 170.438ZM14.233 44.5809C14.6426 43.9236 15.061 43.2702 15.4882 42.6209L146.375 173.508C145.726 173.935 145.073 174.354 144.415 174.763L14.233 44.5809ZM12.6413 47.2318L141.764 176.355C141.181 176.692 140.595 177.023 140.006 177.346L11.6499 48.9899C11.9736 48.4011 12.3041 47.8151 12.6413 47.2318ZM10.1834 51.766C9.82081 52.4812 9.46789 53.2001 9.12465 53.9224L135.074 179.872C135.796 179.528 136.515 179.176 137.23 178.813L10.1834 51.766ZM132.157 181.197L7.79905 56.8394C7.4726 57.5916 7.1564 58.3472 6.85045 59.1059L129.89 182.146C130.649 181.84 131.405 181.524 132.157 181.197ZM4.84532 64.5587C5.11108 63.7608 5.38778 62.9656 5.67541 62.1736L126.823 183.321C126.031 183.609 125.236 183.885 124.438 184.151L4.84532 64.5587ZM3.83345 67.7895L121.207 185.163C120.371 185.408 119.533 185.642 118.692 185.863L3.13289 70.304C3.35464 69.4633 3.58816 68.625 3.83345 67.7895ZM2.30077 73.7145C2.1024 74.5985 1.91685 75.4848 1.74414 76.3731L112.623 187.252C113.512 187.079 114.398 186.894 115.282 186.696L2.30077 73.7145ZM109.011 187.882L1.11405 79.9857C0.968915 80.9248 0.837958 81.8657 0.721183 82.8081L106.188 188.275C107.131 188.158 108.072 188.027 109.011 187.882ZM0.122661 89.6672C0.17378 88.6618 0.240876 87.6571 0.32395 86.6535L102.343 188.672C101.339 188.755 100.335 188.823 99.3291 188.874L0.122661 89.6672ZM0.00261856 93.7898L95.2065 188.994C94.2278 189.001 93.2491 188.993 92.2706 188.97L0.0261565 96.7257C0.00320149 95.7473 -0.00464448 94.7685 0.00261856 93.7898ZM84.289 188.446C85.464 188.573 86.6409 188.678 87.8191 188.761L0.235062 101.177C0.318069 102.355 0.42306 103.532 0.550035 104.707L84.289 188.446ZM1.92906 113.544C1.6613 112.237 1.42141 110.925 1.2094 109.609L79.387 187.787C78.0714 187.575 76.7594 187.335 75.4521 187.067L1.92906 113.544ZM3.24306 119.101L69.8954 185.753C68.3646 185.342 66.842 184.892 65.3294 184.402L4.59406 123.667C4.10462 122.154 3.65429 120.632 3.24306 119.101ZM58.6381 181.954L7.04276 130.358C7.85036 132.33 8.72741 134.28 9.67391 136.205L52.7917 179.322C54.7162 180.269 56.6663 181.146 58.6381 181.954ZM42.9408 173.714L15.2821 146.056C18.8052 151.457 22.9373 156.576 27.6786 161.318C32.42 166.059 37.5398 170.191 42.9408 173.714ZM186.308 116.955C186.1 117.809 185.88 118.661 185.648 119.51L69.4865 3.34859C70.3356 3.11641 71.1873 2.89629 72.0414 2.68822L186.308 116.955ZM187.595 110.784C187.438 111.688 187.268 112.589 187.084 113.488L75.5081 1.91231C76.4073 1.72871 77.3087 1.55829 78.2119 1.40106L187.595 110.784ZM188.161 107.108C188.271 106.291 188.369 105.473 188.457 104.654L84.3421 0.539025C83.5232 0.627044 82.7054 0.725738 81.8886 0.835108L188.161 107.108ZM188.796 100.75C188.863 99.7298 188.914 98.7088 188.948 97.6873L91.3091 0.0482953C90.2875 0.0826022 89.2665 0.133384 88.2463 0.20064L188.796 100.75ZM188.904 90.1852C188.954 91.2872 188.985 92.39 188.996 93.4929L95.5034 0C96.6063 0.0116294 97.7091 0.0424482 98.8111 0.0924567L188.904 90.1852ZM188.177 82.0003C188.337 83.2065 188.474 84.4152 188.587 85.6256L103.371 0.409363C104.581 0.522804 105.79 0.65952 106.996 0.819513L188.177 82.0003ZM187.367 76.9483C187.111 75.5853 186.825 74.2268 186.508 72.8739L116.122 2.48813C114.77 2.17156 113.411 1.88514 112.048 1.62886L187.367 76.9483ZM184.957 67.0799C184.469 65.465 183.937 63.8606 183.361 62.2686L126.728 5.63567C125.136 5.05948 123.531 4.52743 121.916 4.03953L184.957 67.0799ZM177.119 48.5691C178.309 50.7066 179.409 52.8804 180.42 55.0851L133.911 8.57656C136.116 9.5875 138.29 10.6878 140.427 11.8773L177.119 48.5691ZM161.323 27.6734C163.896 30.2465 166.29 32.9312 168.504 35.7117L153.285 20.4921C156.065 22.7064 158.75 25.1002 161.323 27.6734Z" fill="url(#paint0_linear_18_150)" fill-opacity="0.6"/>
<defs>
<linearGradient id="paint0_linear_18_150" x1="27.6779" y1="27.678" x2="161.319" y2="161.319" gradientUnits="userSpaceOnUse">
<stop offset="0.197917" stop-color="#C75531"/>
<stop offset="0.807292" stop-color="#554D89"/>
</linearGradient>
</defs>
</svg>
